<svg xmlns="http://www.w3.org/2000/svg" width="145" height="106" fill="none" viewBox="0 0 145 106"><path fill="#1fb6a9" d="M128.5 100h-19a1 1 0 0 1-1-1V55h24v41a4 4 0 0 1-4 4"/><path fill="#000" fill-opacity=".2" d="M128.5 100h-19a1 1 0 0 1-1-1V55h24v41a4 4 0 0 1-4 4"/><rect width="128" height="96" x="16.5" y="2" fill="#202020" rx="8"/><path stroke="#bad072" stroke-linecap="round" stroke-opacity=".66" stroke-width="2" d="M24.5 22h16M24.5 28h56"/><mask id="a" width="129" height="96" x="16" y="2" maskUnits="userSpaceOnUse" style="mask-type:alpha"><rect width="128" height="96" x="16.5" y="2" fill="#202020" rx="8"/></mask><g filter="url(#b)" mask="url(#a)"><path fill="url(#c)" fill-opacity=".5" d="M110.793 29.707a1 1 0 0 1 1.414 0l25.586 25.586c.63.63.184 1.707-.707 1.707H124.5v42a1 1 0 0 1-1 1H99.578a1 1 0 0 1-1-1V57H85.914c-.89 0-1.337-1.077-.707-1.707z"/></g><path fill="url(#d)" d="M16.5 8a8 8 0 0 1 8-8h112a8 8 0 0 1 8 8v4h-128z"/><path fill="#404040" d="M16.5 10a8 8 0 0 1 8-8h112a8 8 0 0 1 8 8v4h-128z"/><path stroke="#fff" stroke-linecap="round" stroke-linejoin="round" d="M117.5 10h3M129.5 10V7h-3v3zM138.5 7l-3 3m0-3 3 3"/><path fill="url(#e)" d="M110.793 29.707a1 1 0 0 1 1.414 0l25.586 25.586c.63.63.184 1.707-.707 1.707H124.5v42a1 1 0 0 1-1 1H99.578a1 1 0 0 1-1-1V57H85.914c-.89 0-1.337-1.077-.707-1.707z"/><path fill="#1fb6a9" d="M123.5 100h5a4 4 0 0 1-4-4h-1z"/><mask id="f" width="49" height="50" x="0" y="49" maskUnits="userSpaceOnUse" style="mask-type:alpha"><path fill="#d9d9d9" stroke="#000" d="M44.5 50h-40a4 4 0 0 0-4 4v40a4 4 0 0 0 4 4h25.535a4 4 0 0 1-.535-2V72a4 4 0 0 1 4-4h15V54a4 4 0 0 0-4-4Z"/></mask><g mask="url(#f)"><path stroke="#8bb7ff" stroke-dasharray="2 2" stroke-linejoin="round" d="M24.5 50v8"/><rect width="48" height="48" x=".5" y="50" stroke="#8bb7ff" stroke-dasharray="2 2" rx="4"/><path stroke="#6a9ff5" stroke-dasharray="2 2" d="M.5 62a4 4 0 0 1 4-4h40a4 4 0 0 1 4 4v32a4 4 0 0 1-4 4h-40a4 4 0 0 1-4-4z"/><path stroke="#2a60b5" d="M23.793 67.707a1 1 0 0 1 1.414 0l5.586 5.586c.63.63.184 1.707-.707 1.707H27.5v7a1 1 0 0 1-1 1h-4a1 1 0 0 1-1-1v-7h-2.586c-.89 0-1.337-1.077-.707-1.707z"/></g><path stroke="#ffc0c0" stroke-dasharray="2 2" stroke-linejoin="round" d="M88.5 77v4"/><path stroke="#8bd3ff" stroke-dasharray="2 2" stroke-linejoin="round" d="M45.5 68v4"/><rect width="32" height="32" x="29.5" y="68" stroke="#8bd3ff" stroke-dasharray="2 2" rx="4"/><rect width="32" height="28" x="29.5" y="72" stroke="#74bafc" stroke-dasharray="2 2" rx="4"/><rect width="32" height="28" x="72.5" y="77" stroke="#ffc0c0" stroke-dasharray="2 2" rx="4"/><rect width="32" height="24" x="72.5" y="81" stroke="#ffa0a0" stroke-dasharray="2 2" rx="4"/><defs><linearGradient id="c" x1="111.5" x2="111.5" y1="25.741" y2="102" gradientUnits="userSpaceOnUse"><stop stop-color="#52ff2f"/><stop offset="1" stop-color="#1bb2b2"/></linearGradient><linearGradient id="d" x1="144.5" x2="16.5" y1="12" y2="12" gradientUnits="userSpaceOnUse"><stop stop-color="#404040"/><stop offset=".02" stop-color="gray"/><stop offset=".07" stop-color="#505050"/><stop offset=".93" stop-color="#505050"/><stop offset=".98" stop-color="gray"/><stop offset="1" stop-color="#404040"/></linearGradient><linearGradient id="e" x1="111.5" x2="111.5" y1="25.741" y2="102" gradientUnits="userSpaceOnUse"><stop stop-color="#52ff2f"/><stop offset="1" stop-color="#1bb2b2"/></linearGradient><filter id="b" width="117.176" height="134.586" x="52.912" y="-2.586" color-interpolation-filters="sRGB" filterUnits="userSpaceOnUse"><feFlood flood-opacity="0" result="BackgroundImageFix"/><feBlend in="SourceGraphic" in2="BackgroundImageFix" result="shape"/><feGaussianBlur result="effect1_foregroundBlur_133_100" stdDeviation="16"/></filter></defs></svg>