<svg xmlns="http://www.w3.org/2000/svg" viewBox="0 0 16 16"><path fill="gray" d="M4 4a4 4 0 0 0-4 4 4 4 0 0 0 4 4 4 4 0 0 0 3.455-2l2.483-.006.562-.494.5.5.5-.5.5.5.5-.5 1 1L16 8l-2-2-6.535.004A4 4 0 0 0 4 4m0 1a3 3 0 0 1 3 3 3 3 0 0 1-3 3 3 3 0 0 1-3-3 3 3 0 0 1 3-3M3 7a1 1 0 0 0-1 1 1 1 0 0 0 1 1 1 1 0 0 0 1-1 1 1 0 0 0-1-1m10.586 0 1 1L13.5 9.086l-1-1-.5.5-.5-.5-.5.5-.455-.455-.984.863-1.696.004A4 4 0 0 0 8 8a4 4 0 0 0-.125-.996z" style="font-feature-settings:normal;font-variant-alternates:normal;font-variant-caps:normal;font-variant-ligatures:normal;font-variant-numeric:normal;font-variant-position:normal;isolation:auto;mix-blend-mode:normal;shape-padding:0;text-decoration-color:#000;text-decoration-line:none;text-decoration-style:solid;text-indent:0;text-orientation:mixed;text-transform:none"/></svg>