<svg xmlns="http://www.w3.org/2000/svg" viewBox="0 0 16 16"><g fill="gray"><path d="M556.99 260c-1.258.015-2.179-.03-2.932.385a1.88 1.88 0 0 0-.837.998c-.165.438-.225.96-.225 1.617v10c0 .658.06 1.179.225 1.617.164.439.461.789.837.996.681.376 1.535.371 2.616.38a6 6 0 0 1-1.192-1.052c-.43-.038-.753-.099-.941-.203-.184-.101-.287-.213-.385-.472-.098-.26-.16-.674-.16-1.266v-10c0-.592.062-1.006.16-1.266s.201-.371.385-.472c.366-.202 1.196-.247 2.455-.262h5c1.258.015 2.089.06 2.455.262.183.1.287.213.385.472.097.26.16.674.16 1.266v1.535a6 6 0 0 1 1 1.155V263c0-.657-.06-1.178-.225-1.617a1.88 1.88 0 0 0-.838-.996c-.752-.415-1.673-.372-2.931-.387h-5.008zm-1.744 2a.25.25 0 0 0-.25.25v.5c0 .139.111.25.25.25h.5a.25.25 0 0 0 .25-.25v-.5a.25.25 0 0 0-.25-.25zm8 0a.25.25 0 0 0-.25.25v.5c0 .139.111.25.25.25h.5a.25.25 0 0 0 .25-.25v-.5a.25.25 0 0 0-.25-.25zm-8 2a.25.25 0 0 0-.25.25v.5c0 .139.111.25.25.25h.5a.25.25 0 0 0 .25-.25v-.5a.25.25 0 0 0-.25-.25zm8 0a.25.25 0 0 0-.25.25v.5c0 .139.111.25.25.25h.5a.25.25 0 0 0 .25-.25v-.5a.25.25 0 0 0-.25-.25zm-8 2a.25.25 0 0 0-.25.25v.5c0 .139.111.25.25.25h.5a.25.25 0 0 0 .25-.25v-.5a.25.25 0 0 0-.25-.25zm10.52 7.627a6 6 0 0 1-.448.523l.082.084c.153-.173.28-.377.367-.607" color="#000" style="font-feature-settings:normal;font-variant-alternates:normal;font-variant-caps:normal;font-variant-ligatures:normal;font-variant-numeric:normal;font-variant-position:normal;isolation:auto;mix-blend-mode:normal;shape-padding:0;text-decoration-color:#000;text-decoration-line:none;text-decoration-style:solid;text-indent:0;text-orientation:mixed;text-transform:none;white-space:normal" transform="translate(-552 -260)"/><path d="M6.86 8c-.264.293-.467.63-.592 1h5.617a3 3 0 0 0-.59-1zm-.736 2c-.01.346.04.684.16 1h5.566c.123-.317.194-.653.19-1zm.793 2c.532.56 1.27.929 2.054.94.849.048 1.66-.336 2.239-.94z"/><path d="M561 265c-2.755 0-5 2.245-5 5s2.245 5 5 5 5-2.245 5-5-2.245-5-5-5m0 1.04c2.193 0 3.96 1.767 3.96 3.96s-1.767 3.96-3.96 3.96-3.959-1.767-3.959-3.96 1.766-3.96 3.959-3.96" color="#000" style="font-feature-settings:normal;font-variant-alternates:normal;font-variant-caps:normal;font-variant-ligatures:normal;font-variant-numeric:normal;font-variant-position:normal;isolation:auto;mix-blend-mode:normal;shape-padding:0;text-decoration-color:#000;text-decoration-line:none;text-decoration-style:solid;text-indent:0;text-orientation:mixed;text-transform:none;white-space:normal" transform="translate(-552 -260)"/><path fill-rule="evenodd" d="m564.35 272.65-.707.707 2.5 2.5.707-.707z" color="#000" style="font-feature-settings:normal;font-variant-alternates:normal;font-variant-caps:normal;font-variant-ligatures:normal;font-variant-numeric:normal;font-variant-position:normal;isolation:auto;mix-blend-mode:normal;shape-padding:0;text-decoration-color:#000;text-decoration-line:none;text-decoration-style:solid;text-indent:0;text-orientation:mixed;text-transform:none;white-space:normal" transform="translate(-552 -260)"/></g></svg>