<svg xmlns="http://www.w3.org/2000/svg" viewBox="0 0 16 16"><path fill="gray" d="M475.99 162c-1.258.015-2.179-.03-2.932.385a1.88 1.88 0 0 0-.837.998c-.165.438-.225.96-.225 1.617v7c0 .658.06 1.179.225 1.617.164.439.461.79.837.998.753.416 1.674.37 2.932.385h8.012c1.258-.014 2.179.03 2.932-.385a1.88 1.88 0 0 0 .837-.998c.165-.438.225-.96.225-1.617v-7c0-.658-.06-1.178-.225-1.617a1.88 1.88 0 0 0-.838-.998c-.752-.416-1.673-.37-2.931-.385h-8.008zm2.902 1.092c1.75-.004 3.498-.001 5.246.021.862.147 2.161-.341 2.674.668.256 2.924.07 5.882.13 8.819-.088.38-.186 1.143-.731 1.129-3.537.235-7.092.108-10.635.134-.787-.112-2 .29-2.405-.691-.17-2.466-.088-4.95-.09-7.436.122-.84-.295-2.064.688-2.511 1.69-.212 3.408-.078 5.123-.133zm-3.414 1.886a.5.5 0 0 0-.273.905l1.467 1.1-1.467 1.099c-.534.401.067 1.202.601.8l2-1.5a.5.5 0 0 0 0-.8l-2-1.5a.5.5 0 0 0-.328-.104m2.528 4.004v1h3v-1z" color="#000" style="font-feature-settings:normal;font-variant-alternates:normal;font-variant-caps:normal;font-variant-ligatures:normal;font-variant-numeric:normal;font-variant-position:normal;isolation:auto;mix-blend-mode:normal;shape-padding:0;text-decoration-color:#000;text-decoration-line:none;text-decoration-style:solid;text-indent:0;text-orientation:mixed;text-transform:none;white-space:normal" transform="translate(-472 -160)"/></svg>