<svg xmlns="http://www.w3.org/2000/svg" viewBox="0 0 16 16"><g fill="gray" color="#000"><path d="m1.307 2.09 3.306 3.304q.41-1.098.765-2.306.346-1.202.611-2.375-1.164.274-2.365.62-1.209.357-2.317.757z"/><path d="M73 327.9a7.003 7.003 0 0 0 7 7.101c3.053 0 5.758-1.982 6.676-4.894s-.16-6.089-2.66-7.84l-.41-.287-.575.82.41.288a6 6 0 0 1 2.282 6.718c-.788 2.5-3.102 4.196-5.723 4.196s-4.935-1.696-5.723-4.196a6 6 0 0 1 2.281-6.718l.41-.288-.574-.82-.41.287A7 7 0 0 0 73 327.9z" style="font-feature-settings:normal;font-variant-alternates:normal;font-variant-caps:normal;font-variant-ligatures:normal;font-variant-numeric:normal;font-variant-position:normal;isolation:auto;mix-blend-mode:normal;shape-padding:0;text-decoration-color:#000;text-decoration-line:none;text-decoration-style:solid;text-indent:0;text-orientation:mixed;text-transform:none;white-space:normal" transform="translate(-72 -320)"/></g></svg>