<svg xmlns="http://www.w3.org/2000/svg" viewBox="0 0 16 16"><g fill="gray" transform="translate(-572 -320)"><path d="M578.76 321a79 79 0 0 0-1.394 3.07c-.403.928-.813 1.914-1.227 2.93-.043.105-.084.197-.127.303-.21.534-.433 1.133-.648 1.697h-.86a1.497 1.497 0 0 0-.262 2.973c-.36.969-.721 1.934-1.119 3.027h2.659l1.068-3h6.154c.361 1.012.861 2.083 1.2 3h2.615c-.41-1.08-.776-2.05-1.141-3.018a1.496 1.496 0 0 0-.174-2.982h-.97c-.216-.552-.432-1.118-.645-1.637q-.667-1.696-1.334-3.252a79 79 0 0 0-1.414-3.111h-1.197zm1.285 2.611 1.96 5.389h-4.087c.247-.68.492-1.343.739-2h.02l.462-1.22c.263-.652.527-1.303.805-1.92v-.016zm-5.54 6.389h11.065c.24 0 .434.193.434.434v.132c0 .24-.194.434-.434.434h-11.066a.499.499 0 1 1 0-1"/><rect width="8" height="1" x="-582" y="330" color="#000" opacity=".5" rx=".5" ry=".5" transform="scale(-1 1)"/></g></svg>