<svg xmlns="http://www.w3.org/2000/svg" viewBox="0 0 16 16"><g fill="gray"><path d="m13.909 1.307-3.304 3.307q1.097.409 2.306.764 1.2.347 2.375.612a49 49 0 0 0-.621-2.366 40 40 0 0 0-.756-2.316z" overflow="visible"/><path d="M8.102 1A7.003 7.003 0 0 0 1 8a7 7 0 0 0 4.895 6.676 7.005 7.005 0 0 0 7.84-2.66l.287-.41-.82-.575-.288.41a6 6 0 0 1-6.719 2.282A6 6 0 0 1 2 8a6 6 0 0 1 4.195-5.723 6 6 0 0 1 6.72 2.282l.286.41.82-.574-.287-.41A7 7 0 0 0 8.102 1" font-family="sans-serif" font-weight="400" overflow="visible" style="font-feature-settings:normal;font-variant-alternates:normal;font-variant-caps:normal;font-variant-ligatures:normal;font-variant-numeric:normal;font-variant-position:normal;isolation:auto;mix-blend-mode:normal;shape-padding:0;text-decoration-color:#000;text-decoration-line:none;text-decoration-style:solid;text-indent:0;text-orientation:mixed;text-transform:none"/></g></svg>