<svg xmlns="http://www.w3.org/2000/svg" viewBox="0 0 16.002 16.002"><path fill="gray" d="M7.963 0a1.5 1.5 0 0 0-1.277.785l-6.502 12A1.5 1.5 0 0 0 1.5 15.002h13a1.5 1.5 0 0 0 1.317-2.217l-6.498-12A1.5 1.5 0 0 0 7.963 0m.025 1a.49.49 0 0 1 .451.262l6.498 12c.203.374-.016.74-.437.74h-13c-.422 0-.64-.366-.438-.74l6.502-12A.49.49 0 0 1 7.988 1m-.695 2.002v2.662q.001 1.19.086 2.168.086.963.213 1.926h.82q.128-.963.213-1.926.086-.977.086-2.168V3.002zm.71 8a1 1 0 0 0-1 1c0 .282.118.535.306.717q.254.283.693.283.44 0 .694-.283a1 1 0 0 0 .306-.717 1 1 0 0 0-1-1z" font-family="sans-serif" font-weight="400" overflow="visible" style="font-feature-settings:normal;font-variant-alternates:normal;font-variant-caps:normal;font-variant-ligatures:normal;font-variant-numeric:normal;font-variant-position:normal;isolation:auto;mix-blend-mode:normal;shape-padding:0;text-decoration-color:#000;text-decoration-line:none;text-decoration-style:solid;text-indent:0;text-orientation:mixed;text-transform:none"/></svg>